<svg width="21" height="21" viewBox="0 0 21 21" fill="none" xmlns="http://www.w3.org/2000/svg">
<path d="M16.8322 0.646456C17.6942 -0.215485 19.0916 -0.215485 19.9535 0.646456C20.8155 1.5084 20.8155 2.90589 19.9535 3.76783L13.4864 10.235C13.4505 10.2709 13.4505 10.3291 13.4864 10.365L19.9535 16.8322C20.8155 17.6942 20.8155 19.0916 19.9535 19.9535C19.0916 20.8155 17.6942 20.8155 16.8322 19.9535L10.365 13.4864C10.3291 13.4505 10.2709 13.4505 10.235 13.4864L3.76783 19.9535C2.90589 20.8155 1.5084 20.8155 0.646456 19.9535C-0.215485 19.0916 -0.215485 17.6942 0.646456 16.8322L7.11362 10.365C7.14952 10.3291 7.14952 10.2709 7.11362 10.235L0.646456 3.76783C-0.215485 2.90589 -0.215485 1.5084 0.646456 0.646456C1.5084 -0.215485 2.90589 -0.215485 3.76783 0.646456L10.235 7.11362C10.2709 7.14952 10.3291 7.14952 10.365 7.11362L16.8322 0.646456Z" fill="#FF0000"/>
</svg>
