<svg width="20" height="18" viewBox="0 0 20 18" fill="none" xmlns="http://www.w3.org/2000/svg">
<path d="M9.22728 17.1248C9.60584 17.3361 10.0613 17.3244 10.4376 17.1093C12.973 15.6603 17.3787 12.3248 19.109 7.99213C21.6486 2.35091 15.6856 -2.15226 11.5642 1.08658C11.1344 1.42444 10.5939 1.81112 10.2219 2.1774C10.0537 2.34301 9.75727 2.3599 9.5827 2.20105C9.09361 1.75609 8.32927 1.1853 7.83841 0.853195C4.32497 -1.52388 -2.06786 1.60951 0.65909 8.29689C1.65804 11.2987 6.41841 15.5573 9.22728 17.1248Z" fill="url(#paint0_radial_1_31)"/>
<path d="M9.22728 17.1248C9.60584 17.3361 10.0613 17.3244 10.4376 17.1093C12.973 15.6603 17.3787 12.3248 19.109 7.99213C21.6486 2.35091 15.6856 -2.15226 11.5642 1.08658C11.1344 1.42444 10.5939 1.81112 10.2219 2.1774C10.0537 2.34301 9.75727 2.3599 9.5827 2.20105C9.09361 1.75609 8.32927 1.1853 7.83841 0.853195C4.32497 -1.52388 -2.06786 1.60951 0.65909 8.29689C1.65804 11.2987 6.41841 15.5573 9.22728 17.1248Z" fill="url(#paint1_radial_1_31)"/>
<path d="M9.22728 17.1248C9.60584 17.3361 10.0613 17.3244 10.4376 17.1093C12.973 15.6603 17.3787 12.3248 19.109 7.99213C21.6486 2.35091 15.6856 -2.15226 11.5642 1.08658C11.1344 1.42444 10.5939 1.81112 10.2219 2.1774C10.0537 2.34301 9.75727 2.3599 9.5827 2.20105C9.09361 1.75609 8.32927 1.1853 7.83841 0.853195C4.32497 -1.52388 -2.06786 1.60951 0.65909 8.29689C1.65804 11.2987 6.41841 15.5573 9.22728 17.1248Z" fill="url(#paint2_radial_1_31)"/>
<path d="M9.22728 17.1248C9.60584 17.3361 10.0613 17.3244 10.4376 17.1093C12.973 15.6603 17.3787 12.3248 19.109 7.99213C21.6486 2.35091 15.6856 -2.15226 11.5642 1.08658C11.1344 1.42444 10.5939 1.81112 10.2219 2.1774C10.0537 2.34301 9.75727 2.3599 9.5827 2.20105C9.09361 1.75609 8.32927 1.1853 7.83841 0.853195C4.32497 -1.52388 -2.06786 1.60951 0.65909 8.29689C1.65804 11.2987 6.41841 15.5573 9.22728 17.1248Z" fill="url(#paint3_radial_1_31)"/>
<path d="M9.22728 17.1248C9.60584 17.3361 10.0613 17.3244 10.4376 17.1093C12.973 15.6603 17.3787 12.3248 19.109 7.99213C21.6486 2.35091 15.6856 -2.15226 11.5642 1.08658C11.1344 1.42444 10.5939 1.81112 10.2219 2.1774C10.0537 2.34301 9.75727 2.3599 9.5827 2.20105C9.09361 1.75609 8.32927 1.1853 7.83841 0.853195C4.32497 -1.52388 -2.06786 1.60951 0.65909 8.29689C1.65804 11.2987 6.41841 15.5573 9.22728 17.1248Z" fill="url(#paint4_linear_1_31)"/>
<path d="M9.22728 17.1248C9.60584 17.3361 10.0613 17.3244 10.4376 17.1093C12.973 15.6603 17.3787 12.3248 19.109 7.99213C21.6486 2.35091 15.6856 -2.15226 11.5642 1.08658C11.1344 1.42444 10.5939 1.81112 10.2219 2.1774C10.0537 2.34301 9.75727 2.3599 9.5827 2.20105C9.09361 1.75609 8.32927 1.1853 7.83841 0.853195C4.32497 -1.52388 -2.06786 1.60951 0.65909 8.29689C1.65804 11.2987 6.41841 15.5573 9.22728 17.1248Z" fill="url(#paint5_linear_1_31)"/>
<path d="M9.22728 17.1248C9.60584 17.3361 10.0613 17.3244 10.4376 17.1093C12.973 15.6603 17.3787 12.3248 19.109 7.99213C21.6486 2.35091 15.6856 -2.15226 11.5642 1.08658C11.1344 1.42444 10.5939 1.81112 10.2219 2.1774C10.0537 2.34301 9.75727 2.3599 9.5827 2.20105C9.09361 1.75609 8.32927 1.1853 7.83841 0.853195C4.32497 -1.52388 -2.06786 1.60951 0.65909 8.29689C1.65804 11.2987 6.41841 15.5573 9.22728 17.1248Z" fill="url(#paint6_radial_1_31)" fill-opacity="0.6"/>
<path d="M9.71651 3.92057V8.74827C9.71651 9.3885 10.4917 9.69199 10.8909 9.19137C12.1257 7.64244 13.1217 5.75897 12.0102 4.22045C11.5841 3.6306 10.7676 3.25269 10.1006 3.37292C9.85102 3.41789 9.71651 3.66697 9.71651 3.92057Z" fill="#FA1C56"/>
<path d="M17.7363 6.38972C18.9865 5.17435 19.1829 3.34859 18.175 2.31178C17.1671 1.27496 15.3365 1.41971 14.0863 2.63508C12.8361 3.85046 12.6396 5.67621 13.6476 6.71303C14.6555 7.74984 16.486 7.60509 17.7363 6.38972Z" fill="url(#paint7_radial_1_31)"/>
<path d="M15.0287 1.00452C15.685 1.08703 16.2311 1.04212 16.2484 0.904226C16.2657 0.766331 15.7478 0.587664 15.0915 0.505163C14.4352 0.422662 13.8892 0.467568 13.8718 0.605462C13.8545 0.743357 14.3725 0.922024 15.0287 1.00452Z" fill="#FF7383"/>
<path d="M5.10553 0.921865C5.69896 0.914644 6.17908 0.829781 6.17789 0.732319C6.1767 0.634858 5.69467 0.561703 5.10123 0.568925C4.5078 0.576147 4.02769 0.661009 4.02887 0.758471C4.03006 0.855933 4.51209 0.929087 5.10553 0.921865Z" fill="#FF93BA" fill-opacity="0.5"/>
<path d="M8.96413 3.51099L9.18532 10.7639C4.32059 6.03182 3.38515 2.70876 5.24928 1.96313C7.01831 1.25554 8.4335 2.40538 8.96413 3.51099Z" fill="url(#paint8_radial_1_31)"/>
<path d="M8.6104 3.08646C8.01602 3.00155 7.83204 2.5086 7.81435 2.27273C8.154 2.62653 8.48657 2.65601 8.6104 2.62653V3.08646Z" fill="#FF7383"/>
<defs>
<radialGradient id="paint0_radial_1_31" cx="0" cy="0" r="1" gradientUnits="userSpaceOnUse" gradientTransform="translate(9.69839 0.448353) rotate(90) scale(16.2637 17.2668)">
<stop stop-color="#FC0000"/>
<stop offset="0.527969" stop-color="#FF3B79"/>
<stop offset="1" stop-color="#F724B3"/>
</radialGradient>
<radialGradient id="paint1_radial_1_31" cx="0" cy="0" r="1" gradientUnits="userSpaceOnUse" gradientTransform="translate(14.7521 4.50249) rotate(134.402) scale(15.0468 28.184)">
<stop offset="0.797874" stop-color="#C82092" stop-opacity="0"/>
<stop offset="0.908039" stop-color="#C82092"/>
</radialGradient>
<radialGradient id="paint2_radial_1_31" cx="0" cy="0" r="1" gradientUnits="userSpaceOnUse" gradientTransform="translate(12.6094 9.04914) rotate(-158.663) scale(16.0971 22.7555)">
<stop offset="0.40984" stop-color="#B91D43" stop-opacity="0"/>
<stop offset="0.833898" stop-color="#B91D43"/>
</radialGradient>
<radialGradient id="paint3_radial_1_31" cx="0" cy="0" r="1" gradientUnits="userSpaceOnUse" gradientTransform="translate(9.47012 6.2378) rotate(90) scale(14.0098)">
<stop offset="0.671096" stop-color="#FF7AF2" stop-opacity="0"/>
<stop offset="0.933555" stop-color="#FFBCE6"/>
</radialGradient>
<linearGradient id="paint4_linear_1_31" x1="11.0164" y1="7.87772" x2="16.6858" y2="14.6249" gradientUnits="userSpaceOnUse">
<stop offset="0.694491" stop-color="#FF7AF2" stop-opacity="0"/>
<stop offset="0.933555" stop-color="#FFBCE6"/>
</linearGradient>
<linearGradient id="paint5_linear_1_31" x1="10.3135" y1="8.15884" x2="3.66002" y2="15.6557" gradientUnits="userSpaceOnUse">
<stop offset="0.694491" stop-color="#FF7AF2" stop-opacity="0"/>
<stop offset="0.933555" stop-color="#FFBCE6"/>
</linearGradient>
<radialGradient id="paint6_radial_1_31" cx="0" cy="0" r="1" gradientUnits="userSpaceOnUse" gradientTransform="translate(11.4421 5.58695) rotate(164.618) scale(12.181 12.8642)">
<stop offset="0.802083" stop-color="#FF73A6" stop-opacity="0"/>
<stop offset="1" stop-color="#FF93BA"/>
</radialGradient>
<radialGradient id="paint7_radial_1_31" cx="0" cy="0" r="1" gradientUnits="userSpaceOnUse" gradientTransform="translate(18.1106 2.25063) rotate(128.737) scale(5.15933 6.86056)">
<stop stop-color="#FF7383"/>
<stop offset="1" stop-color="#FF7383" stop-opacity="0"/>
</radialGradient>
<radialGradient id="paint8_radial_1_31" cx="0" cy="0" r="1" gradientUnits="userSpaceOnUse" gradientTransform="translate(10.0256 6.25464) rotate(-135.591) scale(8.97661 15.935)">
<stop stop-color="#FF6274"/>
<stop offset="1" stop-color="#FF6274" stop-opacity="0"/>
</radialGradient>
</defs>
</svg>
