<svg width="52" height="52" viewBox="0 0 52 52" fill="none" xmlns="http://www.w3.org/2000/svg">
<mask id="mask0_1_60" style="mask-type:luminance" maskUnits="userSpaceOnUse" x="0" y="0" width="52" height="52">
<path d="M0 0H51.6V51.6H0V0Z" fill="white"/>
</mask>
<g mask="url(#mask0_1_60)">
<path d="M45.3171 7.16706C40.4046 2.25453 32.4398 2.25453 27.5273 7.16706L20.9765 13.7178C19.8425 14.8519 18.9701 16.1487 18.3598 17.5329C20.6289 16.4883 23.1452 16.1552 25.572 16.5338L31.233 10.8727C34.0989 8.0068 38.7455 8.0068 41.6114 10.8727C44.4774 13.7387 44.4774 18.3852 41.6115 21.2513L35.0606 27.8021C32.1947 30.668 27.5481 30.668 24.6822 27.8021C23.0155 26.1354 22.3181 23.8666 22.5898 21.6959C21.0692 21.911 19.6032 22.6032 18.4338 23.7728L17.4714 24.7351C17.8938 27.2153 19.062 29.5932 20.9765 31.5078C25.889 36.4202 33.8538 36.4202 38.7663 31.5078L45.3171 24.957C50.2297 20.0443 50.2297 12.0796 45.3171 7.16706Z" fill="#C8BDCD"/>
<path d="M45.3171 7.16706C40.4046 2.25453 32.4398 2.25453 27.5273 7.16706L20.9765 13.7178C19.8425 14.8519 18.9701 16.1487 18.3598 17.5329C20.6289 16.4883 23.1452 16.1552 25.572 16.5338L31.233 10.8727C34.0989 8.0068 38.7455 8.0068 41.6114 10.8727C44.4774 13.7387 44.4774 18.3852 41.6115 21.2513L35.0606 27.8021C32.1947 30.668 27.5481 30.668 24.6822 27.8021C23.0155 26.1354 22.3181 23.8666 22.5898 21.6959C21.0692 21.911 19.6032 22.6032 18.4338 23.7728L17.4714 24.7351C17.8938 27.2153 19.062 29.5932 20.9765 31.5078C25.889 36.4202 33.8538 36.4202 38.7663 31.5078L45.3171 24.957C50.2297 20.0443 50.2297 12.0796 45.3171 7.16706Z" fill="url(#paint0_radial_1_60)"/>
<path d="M45.3171 7.16706C40.4046 2.25453 32.4398 2.25453 27.5273 7.16706L20.9765 13.7178C19.8425 14.8519 18.9701 16.1487 18.3598 17.5329C20.6289 16.4883 23.1452 16.1552 25.572 16.5338L31.233 10.8727C34.0989 8.0068 38.7455 8.0068 41.6114 10.8727C44.4774 13.7387 44.4774 18.3852 41.6115 21.2513L35.0606 27.8021C32.1947 30.668 27.5481 30.668 24.6822 27.8021C23.0155 26.1354 22.3181 23.8666 22.5898 21.6959C21.0692 21.911 19.6032 22.6032 18.4338 23.7728L17.4714 24.7351C17.8938 27.2153 19.062 29.5932 20.9765 31.5078C25.889 36.4202 33.8538 36.4202 38.7663 31.5078L45.3171 24.957C50.2297 20.0443 50.2297 12.0796 45.3171 7.16706Z" fill="url(#paint1_radial_1_60)"/>
<path d="M45.3171 7.16706C40.4046 2.25453 32.4398 2.25453 27.5273 7.16706L20.9765 13.7178C19.8425 14.8519 18.9701 16.1487 18.3598 17.5329C20.6289 16.4883 23.1452 16.1552 25.572 16.5338L31.233 10.8727C34.0989 8.0068 38.7455 8.0068 41.6114 10.8727C44.4774 13.7387 44.4774 18.3852 41.6115 21.2513L35.0606 27.8021C32.1947 30.668 27.5481 30.668 24.6822 27.8021C23.0155 26.1354 22.3181 23.8666 22.5898 21.6959C21.0692 21.911 19.6032 22.6032 18.4338 23.7728L17.4714 24.7351C17.8938 27.2153 19.062 29.5932 20.9765 31.5078C25.889 36.4202 33.8538 36.4202 38.7663 31.5078L45.3171 24.957C50.2297 20.0443 50.2297 12.0796 45.3171 7.16706Z" fill="url(#paint2_linear_1_60)"/>
<path d="M45.3171 7.16706C40.4046 2.25453 32.4398 2.25453 27.5273 7.16706L20.9765 13.7178C19.8425 14.8519 18.9701 16.1487 18.3598 17.5329C20.6289 16.4883 23.1452 16.1552 25.572 16.5338L31.233 10.8727C34.0989 8.0068 38.7455 8.0068 41.6114 10.8727C44.4774 13.7387 44.4774 18.3852 41.6115 21.2513L35.0606 27.8021C32.1947 30.668 27.5481 30.668 24.6822 27.8021C23.0155 26.1354 22.3181 23.8666 22.5898 21.6959C21.0692 21.911 19.6032 22.6032 18.4338 23.7728L17.4714 24.7351C17.8938 27.2153 19.062 29.5932 20.9765 31.5078C25.889 36.4202 33.8538 36.4202 38.7663 31.5078L45.3171 24.957C50.2297 20.0443 50.2297 12.0796 45.3171 7.16706Z" fill="url(#paint3_radial_1_60)"/>
<path d="M45.3171 7.16706C40.4046 2.25453 32.4398 2.25453 27.5273 7.16706L20.9765 13.7178C19.8425 14.8519 18.9701 16.1487 18.3598 17.5329C20.6289 16.4883 23.1452 16.1552 25.572 16.5338L31.233 10.8727C34.0989 8.0068 38.7455 8.0068 41.6114 10.8727C44.4774 13.7387 44.4774 18.3852 41.6115 21.2513L35.0606 27.8021C32.1947 30.668 27.5481 30.668 24.6822 27.8021C23.0155 26.1354 22.3181 23.8666 22.5898 21.6959C21.0692 21.911 19.6032 22.6032 18.4338 23.7728L17.4714 24.7351C17.8938 27.2153 19.062 29.5932 20.9765 31.5078C25.889 36.4202 33.8538 36.4202 38.7663 31.5078L45.3171 24.957C50.2297 20.0443 50.2297 12.0796 45.3171 7.16706Z" fill="url(#paint4_radial_1_60)"/>
<path d="M44.3649 8.59517L44.3649 8.59512C40.369 4.59928 33.8905 4.59928 29.8946 8.59512L23.112 15.3777C19.1162 19.3736 19.1162 25.8521 23.112 29.8479L23.1121 29.848C27.1079 33.8438 33.5865 33.8438 37.5823 29.848L44.3649 23.0654C48.3608 19.0696 48.3608 12.591 44.3649 8.59517Z" stroke="url(#paint5_linear_1_60)" stroke-width="2.01562"/>
<path d="M44.3649 8.59517L44.3649 8.59512C40.369 4.59928 33.8905 4.59928 29.8946 8.59512L23.112 15.3777C19.1162 19.3736 19.1162 25.8521 23.112 29.8479L23.1121 29.848C27.1079 33.8438 33.5865 33.8438 37.5823 29.848L44.3649 23.0654C48.3608 19.0696 48.3608 12.591 44.3649 8.59517Z" stroke="url(#paint6_linear_1_60)" stroke-width="2.01562"/>
<path d="M25.572 16.5336C28.1146 16.9303 30.559 18.1081 32.5178 20.0671C34.4324 21.9814 35.6006 24.3594 36.0229 26.8397L35.0606 27.8021C33.891 28.9716 32.4251 29.6639 30.9045 29.8788C31.1762 27.7082 30.4788 25.4394 28.8122 23.7728C27.1158 22.0763 24.7954 21.384 22.5898 21.6959C21.2594 21.884 19.9707 22.4376 18.8858 23.3566C18.7306 23.4878 18.5799 23.6265 18.4336 23.7728L11.8829 30.3235C9.01697 33.1894 9.01697 37.836 11.8829 40.7021C14.7489 43.568 19.3955 43.568 22.2614 40.7021L27.9224 35.0411C30.3492 35.4197 32.8655 35.0865 35.1346 34.0418C34.5243 35.4261 33.6519 36.7229 32.5178 37.857L25.9671 44.4078C21.0546 49.3202 13.0898 49.3202 8.17725 44.4078C3.2647 39.4951 3.2647 31.5303 8.17723 26.6179L14.728 20.0671C15.8119 18.9832 17.0443 18.1385 18.3596 17.5329C20.6289 16.4883 23.1452 16.1552 25.572 16.5336Z" fill="#C8BDCD"/>
<path d="M25.572 16.5336C28.1146 16.9303 30.559 18.1081 32.5178 20.0671C34.4324 21.9814 35.6006 24.3594 36.0229 26.8397L35.0606 27.8021C33.891 28.9716 32.4251 29.6639 30.9045 29.8788C31.1762 27.7082 30.4788 25.4394 28.8122 23.7728C27.1158 22.0763 24.7954 21.384 22.5898 21.6959C21.2594 21.884 19.9707 22.4376 18.8858 23.3566C18.7306 23.4878 18.5799 23.6265 18.4336 23.7728L11.8829 30.3235C9.01697 33.1894 9.01697 37.836 11.8829 40.7021C14.7489 43.568 19.3955 43.568 22.2614 40.7021L27.9224 35.0411C30.3492 35.4197 32.8655 35.0865 35.1346 34.0418C34.5243 35.4261 33.6519 36.7229 32.5178 37.857L25.9671 44.4078C21.0546 49.3202 13.0898 49.3202 8.17725 44.4078C3.2647 39.4951 3.2647 31.5303 8.17723 26.6179L14.728 20.0671C15.8119 18.9832 17.0443 18.1385 18.3596 17.5329C20.6289 16.4883 23.1452 16.1552 25.572 16.5336Z" fill="url(#paint7_radial_1_60)"/>
<path d="M25.572 16.5336C28.1146 16.9303 30.559 18.1081 32.5178 20.0671C34.4324 21.9814 35.6006 24.3594 36.0229 26.8397L35.0606 27.8021C33.891 28.9716 32.4251 29.6639 30.9045 29.8788C31.1762 27.7082 30.4788 25.4394 28.8122 23.7728C27.1158 22.0763 24.7954 21.384 22.5898 21.6959C21.2594 21.884 19.9707 22.4376 18.8858 23.3566C18.7306 23.4878 18.5799 23.6265 18.4336 23.7728L11.8829 30.3235C9.01697 33.1894 9.01697 37.836 11.8829 40.7021C14.7489 43.568 19.3955 43.568 22.2614 40.7021L27.9224 35.0411C30.3492 35.4197 32.8655 35.0865 35.1346 34.0418C34.5243 35.4261 33.6519 36.7229 32.5178 37.857L25.9671 44.4078C21.0546 49.3202 13.0898 49.3202 8.17725 44.4078C3.2647 39.4951 3.2647 31.5303 8.17723 26.6179L14.728 20.0671C15.8119 18.9832 17.0443 18.1385 18.3596 17.5329C20.6289 16.4883 23.1452 16.1552 25.572 16.5336Z" fill="url(#paint8_radial_1_60)"/>
<path d="M25.572 16.5336C28.1146 16.9303 30.559 18.1081 32.5178 20.0671C34.4324 21.9814 35.6006 24.3594 36.0229 26.8397L35.0606 27.8021C33.891 28.9716 32.4251 29.6639 30.9045 29.8788C31.1762 27.7082 30.4788 25.4394 28.8122 23.7728C27.1158 22.0763 24.7954 21.384 22.5898 21.6959C21.2594 21.884 19.9707 22.4376 18.8858 23.3566C18.7306 23.4878 18.5799 23.6265 18.4336 23.7728L11.8829 30.3235C9.01697 33.1894 9.01697 37.836 11.8829 40.7021C14.7489 43.568 19.3955 43.568 22.2614 40.7021L27.9224 35.0411C30.3492 35.4197 32.8655 35.0865 35.1346 34.0418C34.5243 35.4261 33.6519 36.7229 32.5178 37.857L25.9671 44.4078C21.0546 49.3202 13.0898 49.3202 8.17725 44.4078C3.2647 39.4951 3.2647 31.5303 8.17723 26.6179L14.728 20.0671C15.8119 18.9832 17.0443 18.1385 18.3596 17.5329C20.6289 16.4883 23.1452 16.1552 25.572 16.5336Z" fill="url(#paint9_linear_1_60)"/>
<path d="M25.572 16.5336C28.1146 16.9303 30.559 18.1081 32.5178 20.0671C34.4324 21.9814 35.6006 24.3594 36.0229 26.8397L35.0606 27.8021C33.891 28.9716 32.4251 29.6639 30.9045 29.8788C31.1762 27.7082 30.4788 25.4394 28.8122 23.7728C27.1158 22.0763 24.7954 21.384 22.5898 21.6959C21.2594 21.884 19.9707 22.4376 18.8858 23.3566C18.7306 23.4878 18.5799 23.6265 18.4336 23.7728L11.8829 30.3235C9.01697 33.1894 9.01697 37.836 11.8829 40.7021C14.7489 43.568 19.3955 43.568 22.2614 40.7021L27.9224 35.0411C30.3492 35.4197 32.8655 35.0865 35.1346 34.0418C34.5243 35.4261 33.6519 36.7229 32.5178 37.857L25.9671 44.4078C21.0546 49.3202 13.0898 49.3202 8.17725 44.4078C3.2647 39.4951 3.2647 31.5303 8.17723 26.6179L14.728 20.0671C15.8119 18.9832 17.0443 18.1385 18.3596 17.5329C20.6289 16.4883 23.1452 16.1552 25.572 16.5336Z" fill="url(#paint10_radial_1_60)"/>
<path d="M25.572 16.5336C28.1146 16.9303 30.559 18.1081 32.5178 20.0671C34.4324 21.9814 35.6006 24.3594 36.0229 26.8397L35.0606 27.8021C33.891 28.9716 32.4251 29.6639 30.9045 29.8788C31.1762 27.7082 30.4788 25.4394 28.8122 23.7728C27.1158 22.0763 24.7954 21.384 22.5898 21.6959C21.2594 21.884 19.9707 22.4376 18.8858 23.3566C18.7306 23.4878 18.5799 23.6265 18.4336 23.7728L11.8829 30.3235C9.01697 33.1894 9.01697 37.836 11.8829 40.7021C14.7489 43.568 19.3955 43.568 22.2614 40.7021L27.9224 35.0411C30.3492 35.4197 32.8655 35.0865 35.1346 34.0418C34.5243 35.4261 33.6519 36.7229 32.5178 37.857L25.9671 44.4078C21.0546 49.3202 13.0898 49.3202 8.17725 44.4078C3.2647 39.4951 3.2647 31.5303 8.17723 26.6179L14.728 20.0671C15.8119 18.9832 17.0443 18.1385 18.3596 17.5329C20.6289 16.4883 23.1452 16.1552 25.572 16.5336Z" fill="url(#paint11_radial_1_60)"/>
<path d="M31.0153 21.48L31.0153 21.48C27.0195 17.4841 20.5409 17.4841 16.5451 21.48L10.6469 27.3781C6.65109 31.3739 6.65109 37.8525 10.6469 41.8483L10.647 41.8484C14.6428 45.8442 21.1214 45.8442 25.1172 41.8484L31.0153 35.9502C35.0112 31.9544 35.0112 25.4759 31.0153 21.48Z" stroke="url(#paint12_linear_1_60)" stroke-width="2.01562"/>
<path d="M31.0153 21.48L31.0153 21.48C27.0195 17.4841 20.5409 17.4841 16.5451 21.48L10.6469 27.3781C6.65109 31.3739 6.65109 37.8525 10.6469 41.8483L10.647 41.8484C14.6428 45.8442 21.1214 45.8442 25.1172 41.8484L31.0153 35.9502C35.0112 31.9544 35.0112 25.4759 31.0153 21.48Z" stroke="url(#paint13_linear_1_60)" stroke-width="2.01562"/>
</g>
<defs>
<radialGradient id="paint0_radial_1_60" cx="0" cy="0" r="1" gradientUnits="userSpaceOnUse" gradientTransform="translate(31.1548 14.7818) rotate(89.324) scale(22.2161 22.6068)">
<stop offset="0.773589" stop-color="#A08FAF" stop-opacity="0"/>
<stop offset="0.969314" stop-color="#8C72A5"/>
</radialGradient>
<radialGradient id="paint1_radial_1_60" cx="0" cy="0" r="1" gradientUnits="userSpaceOnUse" gradientTransform="translate(23.4878 17.4029) rotate(-71.2883) scale(4.28954 12.1439)">
<stop stop-color="#CDC4D3"/>
<stop offset="1" stop-color="#CDC4D3" stop-opacity="0"/>
</radialGradient>
<linearGradient id="paint2_linear_1_60" x1="19.7528" y1="13.5367" x2="22.1774" y2="16.0268" gradientUnits="userSpaceOnUse">
<stop offset="0.298766" stop-color="#DED6E0"/>
<stop offset="1" stop-color="#DED6E0" stop-opacity="0"/>
</linearGradient>
<radialGradient id="paint3_radial_1_60" cx="0" cy="0" r="1" gradientUnits="userSpaceOnUse" gradientTransform="translate(37.7078 12.6848) rotate(-77.9885) scale(6.29763 8.13319)">
<stop stop-color="#9378A9"/>
<stop offset="1" stop-color="#AB9FB5" stop-opacity="0"/>
</radialGradient>
<radialGradient id="paint4_radial_1_60" cx="0" cy="0" r="1" gradientUnits="userSpaceOnUse" gradientTransform="translate(19.4906 22.6453) rotate(71.2883) scale(4.28954 10.9246)">
<stop offset="0.160794" stop-color="#9789A3"/>
<stop offset="1" stop-color="#9789A3" stop-opacity="0"/>
</radialGradient>
<linearGradient id="paint5_linear_1_60" x1="52.7525" y1="12.581" x2="38.8442" y2="16.4057" gradientUnits="userSpaceOnUse">
<stop offset="0.272407" stop-color="#F1E9F5"/>
<stop offset="1" stop-color="#F1E9F5" stop-opacity="0"/>
</linearGradient>
<linearGradient id="paint6_linear_1_60" x1="18.9663" y1="20.2208" x2="26.9901" y2="22.5446" gradientUnits="userSpaceOnUse">
<stop offset="0.14306" stop-color="#C9BDD2"/>
<stop offset="1" stop-color="#C9BDD2" stop-opacity="0"/>
</linearGradient>
<radialGradient id="paint7_radial_1_60" cx="0" cy="0" r="1" gradientUnits="userSpaceOnUse" gradientTransform="translate(18.1763 27.6818) rotate(89.324) scale(22.2161 22.6068)">
<stop offset="0.773589" stop-color="#A08FAF" stop-opacity="0"/>
<stop offset="0.969314" stop-color="#8C72A5"/>
</radialGradient>
<radialGradient id="paint8_radial_1_60" cx="0" cy="0" r="1" gradientUnits="userSpaceOnUse" gradientTransform="translate(10.5094 30.3029) rotate(-71.2883) scale(4.28954 12.1439)">
<stop stop-color="#CDC4D3"/>
<stop offset="1" stop-color="#CDC4D3" stop-opacity="0"/>
</radialGradient>
<linearGradient id="paint9_linear_1_60" x1="6.77418" y1="26.4368" x2="9.19877" y2="28.9268" gradientUnits="userSpaceOnUse">
<stop stop-color="#DED6E0"/>
<stop offset="1" stop-color="#DED6E0" stop-opacity="0"/>
</linearGradient>
<radialGradient id="paint10_radial_1_60" cx="0" cy="0" r="1" gradientUnits="userSpaceOnUse" gradientTransform="translate(24.7293 25.5849) rotate(-77.9885) scale(6.29763 8.13319)">
<stop offset="0.373303" stop-color="#9378A9"/>
<stop offset="1" stop-color="#AB9FB5" stop-opacity="0"/>
</radialGradient>
<radialGradient id="paint11_radial_1_60" cx="0" cy="0" r="1" gradientUnits="userSpaceOnUse" gradientTransform="translate(34.6934 30.7054) rotate(140.842) scale(10.0143 5.83056)">
<stop offset="0.248848" stop-color="#92889C"/>
<stop offset="1" stop-color="#92889C" stop-opacity="0"/>
</radialGradient>
<linearGradient id="paint12_linear_1_60" x1="30.07" y1="16.9151" x2="25.2988" y2="28.6237" gradientUnits="userSpaceOnUse">
<stop stop-color="#F1E9F5"/>
<stop offset="1" stop-color="#F1E9F5" stop-opacity="0"/>
</linearGradient>
<linearGradient id="paint13_linear_1_60" x1="11.5321" y1="42.8579" x2="14.5773" y2="34.9964" gradientUnits="userSpaceOnUse">
<stop offset="0.14306" stop-color="#E3D8EA"/>
<stop offset="1" stop-color="#E3D8EA" stop-opacity="0"/>
</linearGradient>
</defs>
</svg>
